<svg xmlns="http://www.w3.org/2000/svg" width="113" height="32" fill="none"><g clip-path="url(#a)"><mask id="b" width="113" height="32" x="0" y="0" maskUnits="userSpaceOnUse" style="mask-type:luminance"><path fill="#fff" d="M112.457 0h-112v32h112V0Z"/></mask><g mask="url(#b)"><path fill="#000" d="M44.422 7.216c3.205 0 6.16.67 8 3.432 1.979 2.986-.336 5.33-2.76 5.33-1.257 0-2.538-.644-3.233-2.205-.92-2.09-1.756-3.432-3.15-3.432h-.194c-1.727.168-2.092 2.427-1.56 5.83.417 2.68 1.95 5.775 5.018 5.775 1.504 0 3.093-.782 4.516-2.288.307-.336.643-.475.92-.475.53 0 .891.53.698 1.338-.891 4.046-4.404 5.969-8.084 5.943-4.682-.03-9.505-3.21-9.505-9.485 0-6.641 4.433-9.766 9.337-9.766l-.003.003Z"/><path fill="#000" d="M52.95 6.686c0-.782.614-1.422 2.035-1.422h1.866c1.366 0 3.093.95 3.093 2.763v5.72c0 .223.054.336.138.336.055 0 .168-.055.278-.194 1.004-1.173 2.34-1.926 3.958-1.926 2.983 0 4.823 1.645 4.823 4.63v5.915c0 .837 1.114.976 1.114 2.233 0 .921-.558 1.312-1.114 1.396-.975.139-1.869.223-2.731.223-.949 0-1.866-.084-2.87-.223-.836-.11-1.395-.475-1.395-1.396 0-1.254 1.421-1.396 1.421-2.233v-4.072c0-1.703-.416-2.65-1.337-2.65-1.45 0-2.285 3.461-2.285 4.744v1.981c0 .837 1.113.976 1.113 2.233 0 .921-.558 1.312-1.113 1.396-.975.14-1.87.223-2.732.223-.949 0-1.866-.084-2.87-.223-.836-.11-1.394-.446-1.394-1.312 0-1.199 1.42-1.338 1.42-2.12V9.562c0-1.228-1.42-1.535-1.42-2.873l.003-.003Zm24.986 16.016c0 .782 1.42.92 1.42 2.12 0 .866-.558 1.173-1.394 1.312-.92.139-1.786.223-2.703.223-.917 0-1.869-.084-2.928-.223-.836-.11-1.395-.446-1.395-1.312 0-1.2 1.42-1.338 1.42-2.12v-6.166c0-1.228-1.42-1.535-1.42-2.873 0-.782.559-1.422 1.757-1.422h2.147c1.924 0 3.093.95 3.093 2.763v7.701l.003-.003ZM74.814 5.264c1.979 0 3.29 1.173 3.29 2.93 0 1.759-1.311 2.932-3.29 2.932-1.98 0-3.29-1.173-3.29-2.931s1.31-2.931 3.29-2.931Z"/><path fill="#000" d="M80.292 28.14V16.532c0-1.228-1.42-1.535-1.42-2.873 0-.782.613-1.422 2.034-1.422h1.866c.807 0 1.533.307 2.147.782a.398.398 0 0 0 .277.113c.11 0 .223-.029.336-.113.95-.724 2.173-1.06 3.735-1.06 3.374 0 6.522 2.175 6.522 7.255s-2.87 7.255-6.244 7.255c-1.227 0-2.34-.278-3.316-.837-.084-.055-.138-.055-.193-.055-.113 0-.168.084-.168.252v2.343c0 .782 1.42.921 1.42 2.12 0 .866-.558 1.173-1.394 1.312-.92.14-1.786.223-2.703.223-.916 0-1.869-.084-2.928-.223-.836-.113-1.395-.446-1.395-1.312 0-1.199 1.421-1.367 1.421-2.149l.003-.003Zm5.576-9.905c.084 1.506.193 5.83 2.172 5.83h.084c1.256-.055 1.812-1.422 1.673-4.828-.139-3.293-.836-4.631-2.008-4.631h-.084c-.92.055-1.644.782-1.84 2.566v1.06l.003.003Z"/><path fill="#000" d="M96.96 28.14V16.532c0-1.228-1.42-1.535-1.42-2.873 0-.782.613-1.422 2.034-1.422h1.866c.807 0 1.533.307 2.147.782a.398.398 0 0 0 .277.113c.11 0 .223-.029.336-.113.946-.724 2.173-1.06 3.736-1.06 3.373 0 6.521 2.175 6.521 7.255s-2.87 7.255-6.244 7.255c-1.226 0-2.34-.278-3.315-.837-.084-.055-.139-.055-.194-.055-.113 0-.168.084-.168.252v2.343c0 .782 1.421.921 1.421 2.12 0 .866-.559 1.173-1.395 1.312-.92.14-1.785.223-2.702.223s-1.87-.084-2.928-.223c-.837-.113-1.395-.446-1.395-1.312 0-1.199 1.42-1.367 1.42-2.149l.004-.003Zm5.576-9.905c.084 1.506.194 5.83 2.173 5.83h.084c1.256-.055 1.811-1.422 1.672-4.828-.139-3.293-.836-4.631-2.008-4.631h-.084c-.92.055-1.643.782-1.84 2.566v1.06l.003.003ZM20.925 1.505c-.039 0-.065-.013-.09-.013-.617 0-.242 1.4-1.204 1.849a1.659 1.659 0 0 1-.72.168c-.846 0-1.553-.695-1.308-1.568C17.961.645 19.104.322 20.631.322c2.615 0 4.142 1.823 3.529 4.34C23.763 6.282 22.249 7 20.696 7c-1.282-.039-3.17.973-3.632-.388-.142-.423.562-1.057 2.98-1.373.978-.13 1.617-.708 1.756-1.658.18-1.105-.307-1.978-.872-2.081l-.003.006Z"/><path fill="#000" d="M18.194 7.649c-.63 0-1.191-.2-1.44-.931a.699.699 0 0 1 .087-.608c.349-.555 1.44-.966 3.157-1.192.85-.11 1.36-.588 1.48-1.383.15-.937-.246-1.626-.592-1.71a.224.224 0 0 1-.051-.006c-.04.048-.094.265-.13.41-.116.462-.274 1.096-.936 1.406-.8.378-1.76.168-2.237-.462a1.478 1.478 0 0 1-.239-1.322c.455-1.645 2.024-1.855 3.341-1.855 1.402 0 2.564.498 3.27 1.4.682.872.886 2.058.572 3.341-.468 1.907-2.26 2.585-3.78 2.585-.368-.01-.81.075-1.237.159-.403.077-.849.164-1.265.164v.004Zm2.64-6.48c.05 0 .085.01.107.013h.039c.717.136 1.353 1.109 1.136 2.456-.158 1.076-.9 1.778-2.037 1.926-2.211.288-2.63.795-2.692.892a.113.113 0 0 0-.023.055c.207.604.785.562 1.963.333.462-.09.936-.181 1.369-.168 1.262 0 2.76-.55 3.138-2.088.265-1.086.106-2.074-.452-2.785-.581-.744-1.563-1.15-2.76-1.15-1.657 0-2.444.4-2.715 1.379a.833.833 0 0 0 .129.753c.297.391.91.517 1.443.265.38-.178.48-.582.58-.976.098-.381.227-.905.766-.905h.01Zm-.916 8.781H11.11C5.429 9.95.783 14.605.783 20.29c0 1.948.555 3.768 1.501 5.329l-.516 3.745c-.21 1.526 1.285 2.721 2.725 2.175l3.612-1.367c.952.294 1.963.452 3.009.452h8.807c5.682 0 10.328-4.653 10.328-10.338 0-5.684-4.65-10.338-10.328-10.338l-.003.004Z"/><path fill="#000" d="M3.77 32a2.335 2.335 0 0 1-1.46-.518 2.33 2.33 0 0 1-.862-2.162l.5-3.632a10.602 10.602 0 0 1-1.488-5.4C.457 14.409 5.235 9.623 11.11 9.623h8.808c5.876 0 10.654 4.783 10.654 10.665 0 5.881-4.778 10.664-10.654 10.664H11.11c-1.014 0-2.021-.145-2.996-.433l-3.51 1.328a2.378 2.378 0 0 1-.836.155V32Zm7.34-21.724c-5.517 0-10.004 4.492-10.004 10.015 0 1.806.504 3.59 1.456 5.16l.061.1-.532 3.863a1.692 1.692 0 0 0 .623 1.564 1.682 1.682 0 0 0 1.662.262l3.716-1.406.107.032c.946.291 1.927.44 2.912.44h8.807c5.517 0 10.005-4.492 10.005-10.015 0-5.523-4.488-10.015-10.005-10.015H11.11Z"/><path fill="#F9DB00" d="M22.21 6.52h-8.807c-5.683 0-10.328 4.655-10.328 10.34 0 1.949.555 3.768 1.501 5.329l-.516 3.745c-.21 1.526 1.285 2.721 2.725 2.175l3.612-1.367c.953.294 1.963.453 3.01.453h8.806c5.682 0 10.328-4.654 10.328-10.338 0-5.685-4.649-10.338-10.328-10.338l-.003.003Z"/><path fill="#000" d="M6.061 28.572a2.334 2.334 0 0 1-1.459-.518 2.33 2.33 0 0 1-.862-2.162l.5-3.632a10.61 10.61 0 0 1-1.488-5.4c0-5.882 4.778-10.665 10.654-10.665h8.807c5.876 0 10.654 4.783 10.654 10.665 0 5.881-4.778 10.664-10.654 10.664h-8.807a10.57 10.57 0 0 1-2.996-.433L6.9 28.42a2.379 2.379 0 0 1-.835.155l-.004-.003Zm7.342-21.724c-5.518 0-10.005 4.492-10.005 10.015 0 1.807.504 3.59 1.456 5.161l.061.1-.532 3.862a1.691 1.691 0 0 0 .623 1.564 1.689 1.689 0 0 0 1.662.262l3.716-1.406.107.033c.946.29 1.927.44 2.912.44h8.807c5.517 0 10.005-4.493 10.005-10.016S27.727 6.848 22.21 6.848h-8.807Z"/><path fill="#000" d="M17.7 9.555a2.972 2.972 0 0 0-2.97 2.973v3.464a2.972 2.972 0 0 0 2.97 2.973v-9.41Z"/><path fill="#fff" d="M17.7 9.555v9.41c1.64 0 2.97-1.331 2.97-2.973v-3.464a2.972 2.972 0 0 0-2.97-2.973Z"/><path fill="#fff" d="M17.7 15.453a1.192 1.192 0 1 0-.001-2.383 1.192 1.192 0 0 0 0 2.383Z"/><path fill="#000" d="M25.942 9.555a2.972 2.972 0 0 0-2.97 2.973v3.464a2.972 2.972 0 0 0 2.97 2.973v-9.41Z"/><path fill="#fff" d="M25.942 9.555v9.41c1.64 0 2.97-1.331 2.97-2.973v-3.464a2.972 2.972 0 0 0-2.97-2.973Z"/><path fill="#fff" d="M25.942 15.453a1.192 1.192 0 1 0 0-2.384 1.192 1.192 0 0 0 0 2.384Z"/><path fill="#000" d="M21.493 23.578c-2.421 0-4.18-1.71-4.255-1.78l1.14-1.164s1.375 1.315 3.115 1.315h.065c1.059-.02 2.073-.53 3.018-1.515l1.176 1.127c-1.26 1.316-2.667 1.994-4.181 2.017h-.078Z"/><path fill="#fff" d="M12.502 20.371a.678.678 0 1 0 0-1.357.678.678 0 0 0 0 1.357Zm0 2.24a.678.678 0 1 0 0-1.356.678.678 0 0 0 0 1.356Zm1.963-1.146a.678.678 0 1 0 0-1.357.678.678 0 0 0 0 1.357Z"/></g></g><defs><clipPath id="a"><path fill="#fff" d="M.457 0h112v32h-112z"/></clipPath></defs></svg>